<svg xmlns="http://www.w3.org/2000/svg" xmlns:xlink="http://www.w3.org/1999/xlink" id="Layer_1" x="0px" y="0px" viewBox="0 0 880 230" style="enable-background:new 0 0 880 230;" xml:space="preserve"> <style type="text/css"> .st0{clip-path:url(#SVGID_00000057831025466160306560000001573125593326647431_);fill:#5CA1F3;} .st1{clip-path:url(#SVGID_00000014610799360817851060000011511359898020082594_);fill:#5CA1F3;} .st2{clip-path:url(#SVGID_00000154414645776387887660000009862184309830432184_);} .st3{clip-path:url(#SVGID_00000019679756978388611970000011476305120204639154_);fill:#5CA1F3;} .st4{clip-path:url(#SVGID_00000119075696073606972020000007451787085111079558_);fill:#5CA1F3;} .st5{clip-path:url(#SVGID_00000115499430571389164650000006544669031390593162_);fill:#FFFFFF;} .st6{clip-path:url(#SVGID_00000066515224970355832800000017588139733321454986_);fill:#FFFFFF;} .st7{clip-path:url(#SVGID_00000015328861304122423070000005642919549311563657_);fill:#FFFFFF;} .st8{clip-path:url(#SVGID_00000089536911249036993920000005795423186621885058_);fill:#FFFFFF;} .st9{clip-path:url(#SVGID_00000036221033146033232310000009491169354768320896_);fill:#5CA1F3;} .st10{clip-path:url(#SVGID_00000124152002931899604570000007568669780456727458_);fill:#5CA1F3;} .st11{clip-path:url(#SVGID_00000039135521047100673520000014605184883183427744_);fill:#5CA1F3;} .st12{clip-path:url(#SVGID_00000009556840645269645340000014208479727921351309_);fill:#5CA1F3;} .st13{clip-path:url(#SVGID_00000081642114180136923890000014498593515945961870_);fill:#5CA1F3;} .st14{clip-path:url(#SVGID_00000153678365307423778760000002318102214912723590_);fill:#5CA1F3;} </style> <g id="Tech_Light_Background_00000103264332087467208890000005580828009326861723_"> <g> <g> <defs> <rect id="SVGID_1_" x="71.8" y="4.2" width="808.2" height="221.5"></rect> </defs> <clipPath id="SVGID_00000036930715768900103650000010677801061900717214_"> <use xlink:href="#SVGID_1_" style="overflow:visible;"></use> </clipPath> <polygon style="clip-path:url(#SVGID_00000036930715768900103650000010677801061900717214_);fill:#5CA1F3;" points="259.2,173.4 259.2,181.6 275.1,181.6 275.1,224.7 284.7,224.7 284.7,181.6 300.8,181.6 300.8,173.4 "></polygon> </g> <g> <defs> <rect id="SVGID_00000093860878862718225430000012345561518195040446_" x="71.8" y="4.2" width="808.2" height="221.5"></rect> </defs> <clipPath id="SVGID_00000110448833052883301490000004837070375254074807_"> <use xlink:href="#SVGID_00000093860878862718225430000012345561518195040446_" style="overflow:visible;"></use> </clipPath> <polygon style="clip-path:url(#SVGID_00000110448833052883301490000004837070375254074807_);fill:#5CA1F3;" points="317.9,173.4 317.9,224.7 356,224.7 356,216.3 327.4,216.3 327.4,201.9 352.1,201.9 352.1,194.2 327.4,194.2 327.4,181.5 355.4,181.5 355.4,173.4 "></polygon> </g> <g> <defs> <rect id="SVGID_00000142885204397020046100000015034297463545898383_" x="71.8" y="4.2" width="808.2" height="221.5"></rect> </defs> <clipPath id="SVGID_00000079476106931951628430000003817775815242597551_"> <use xlink:href="#SVGID_00000142885204397020046100000015034297463545898383_" style="overflow:visible;"></use> </clipPath> <g style="clip-path:url(#SVGID_00000079476106931951628430000003817775815242597551_);"> <g> <defs> <rect id="SVGID_00000129914048485494004290000001332055875410540974_" x="71.8" y="4.2" width="808.2" height="221.5"></rect> </defs> <clipPath id="SVGID_00000054966239998308356680000015446407438563296388_"> <use xlink:href="#SVGID_00000129914048485494004290000001332055875410540974_" style="overflow:visible;"></use> </clipPath> <path style="clip-path:url(#SVGID_00000054966239998308356680000015446407438563296388_);fill:#5CA1F3;" d="M396.1,225.8 c-3.7,0-7.1-0.7-10.1-2c-3-1.3-5.6-3.2-7.8-5.5c-2.2-2.4-3.8-5.2-5-8.4c-1.2-3.2-1.8-6.8-1.8-10.6c0-3.8,0.6-7.4,1.7-10.6 c1.1-3.3,2.8-6.1,4.9-8.5c2.1-2.4,4.7-4.3,7.8-5.6c3-1.4,6.5-2,10.3-2c2.9,0,5.6,0.4,8,1.1c2.4,0.7,4.5,1.8,6.2,3.1 c2.1,1.6,3.7,3.5,4.9,5.8c1.2,2.2,2,4.7,2.3,7.4h-9.5c-0.5-2.8-1.7-5-3.8-6.8c-2.1-1.7-4.8-2.6-8.2-2.6c-2.4,0-4.6,0.5-6.4,1.4 c-1.9,0.9-3.4,2.2-4.7,3.9c-1.3,1.7-2.2,3.6-2.9,5.9c-0.6,2.3-1,4.7-1,7.4c0,2.7,0.4,5.2,1.1,7.5c0.7,2.3,1.7,4.2,3,5.9 c1.3,1.6,2.9,2.9,4.7,3.8c1.8,0.9,3.9,1.4,6.2,1.4c1.9,0,3.6-0.3,5.1-0.9c1.5-0.6,2.7-1.4,3.8-2.4c1-1,1.8-2.2,2.5-3.6 c0.6-1.4,1-2.8,1.1-4.4h9.6c-0.1,2.6-0.7,5.1-1.8,7.5c-1.1,2.4-2.6,4.5-4.4,6.2C408.2,223.9,403,225.8,396.1,225.8"></path> </g> <g> <defs> <rect id="SVGID_00000127764167342564208830000004898374809181515405_" x="71.8" y="4.2" width="808.2" height="221.5"></rect> </defs> <clipPath id="SVGID_00000026858755748423453740000018065035120577285783_"> <use xlink:href="#SVGID_00000127764167342564208830000004898374809181515405_" style="overflow:visible;"></use> </clipPath> <polygon style="clip-path:url(#SVGID_00000026858755748423453740000018065035120577285783_);fill:#5CA1F3;" points=" 435.7,173.4 445.2,173.4 445.2,194 467.9,194 467.9,173.4 477.5,173.4 477.5,224.7 467.9,224.7 467.9,201.9 445.2,201.9 445.2,224.7 435.7,224.7 "></polygon> </g> <g> <defs> <rect id="SVGID_00000061450054383051267670000008998603046505198480_" x="71.8" y="4.2" width="808.2" height="221.5"></rect> </defs> <clipPath id="SVGID_00000143604159355556638440000006324220130807790241_"> <use xlink:href="#SVGID_00000061450054383051267670000008998603046505198480_" style="overflow:visible;"></use> </clipPath> <path style="clip-path:url(#SVGID_00000143604159355556638440000006324220130807790241_);fill:#FFFFFF;" d="M330.1,46 L292.2,8.1c-2.5-2.5-5.9-3.9-9.4-3.9H268c-4.9,0-8.8,4-8.8,8.8V135c0,1.3,1,2.3,2.3,2.3h13.6c7.3,0,13.3-5.9,13.3-13.3V45.5 L323.9,81c3.5,3.4,9,3.4,12.5,0l35.6-35.6v78.6c0,7.3,5.9,13.3,13.3,13.3h13.6c1.3,0,2.3-1,2.3-2.3V13.1c0-4.9-4-8.8-8.8-8.8 h-14.8c-3.5,0-6.9,1.4-9.4,3.9L330.1,46z"></path> </g> <g> <defs> <rect id="SVGID_00000137100905973316104640000002795471328182724504_" x="71.8" y="4.2" width="808.2" height="221.5"></rect> </defs> <clipPath id="SVGID_00000127761501334651701250000005493387924637704613_"> <use xlink:href="#SVGID_00000137100905973316104640000002795471328182724504_" style="overflow:visible;"></use> </clipPath> <path style="clip-path:url(#SVGID_00000127761501334651701250000005493387924637704613_);fill:#FFFFFF;" d="M421.1,137.4h13.6 c7.3,0,13.2-5.9,13.2-13.2V89.8h83.6v34.3c0,7.3,5.9,13.2,13.2,13.2h13.6c1.3,0,2.3-1,2.3-2.3v-122c0-4.9-4-8.8-8.8-8.8H427.6 c-4.9,0-8.8,3.9-8.8,8.8V135C418.8,136.3,419.8,137.4,421.1,137.4 M448,33.4h83.6v27.2H448V33.4z"></path> </g> <g> <defs> <rect id="SVGID_00000044858883121300820090000014709600546451672225_" x="71.8" y="4.2" width="808.2" height="221.5"></rect> </defs> <clipPath id="SVGID_00000085946420108484075200000018099041520045991810_"> <use xlink:href="#SVGID_00000044858883121300820090000014709600546451672225_" style="overflow:visible;"></use> </clipPath> <path style="clip-path:url(#SVGID_00000085946420108484075200000018099041520045991810_);fill:#FFFFFF;" d="M738,13.1V135 c0,1.3,1,2.3,2.3,2.3H754c7.3,0,13.3-5.9,13.3-13.2V89.8h83.6v34.3c0,7.3,5.9,13.2,13.3,13.2h13.6c1.3,0,2.3-1,2.3-2.3v-122 c0-4.9-4-8.8-8.8-8.8H746.9C742,4.2,738,8.2,738,13.1 M767.2,33.4h83.6v27.2h-83.6V33.4z"></path> </g> <g> <defs> <rect id="SVGID_00000005963013545916851050000007508624565185695375_" x="71.8" y="4.2" width="808.2" height="221.5"></rect> </defs> <clipPath id="SVGID_00000030456732079094535260000002335455415889032328_"> <use xlink:href="#SVGID_00000005963013545916851050000007508624565185695375_" style="overflow:visible;"></use> </clipPath> <path style="clip-path:url(#SVGID_00000030456732079094535260000002335455415889032328_);fill:#FFFFFF;" d="M691.2,17.5v78.6 L611.6,9c-2.5-3-6.3-4.8-10.2-4.8h-14.1c-4.9,0-8.8,4-8.8,8.8V135c0,1.3,1,2.3,2.3,2.3h13.6c7.3,0,13.3-5.9,13.3-13.3V45.5 l79.7,87.1c2.5,3,6.3,4.8,10.2,4.8H718c1.3,0,2.3-1,2.3-2.3V6.6c0-1.3-1-2.3-2.3-2.3h-13.6C697.1,4.2,691.2,10.2,691.2,17.5"></path> </g> <g> <defs> <rect id="SVGID_00000047019003290840837800000015807166808104255916_" x="71.8" y="4.2" width="808.2" height="221.5"></rect> </defs> <clipPath id="SVGID_00000111193514143918844100000003247491384713826958_"> <use xlink:href="#SVGID_00000047019003290840837800000015807166808104255916_" style="overflow:visible;"></use> </clipPath> <path style="clip-path:url(#SVGID_00000111193514143918844100000003247491384713826958_);fill:#5CA1F3;" d="M134.7,73.8 c1.9,0.7,4-0.2,4.8-2.1l10.7-24.9c1.1-2.5-0.8-5.2-3.5-5.2h-11.2c-2.8,0-4.6-2.9-3.4-5.4l13.2-26.5c2.2-4.1-0.9-5.7-3.9-5.4 c-17.1,2.9-30.1,17.8-30.1,35.7C111.3,55.4,121.1,68.6,134.7,73.8"></path> </g> <g> <defs> <rect id="SVGID_00000158709017714717194690000003116995308578313141_" x="71.8" y="4.2" width="808.2" height="221.5"></rect> </defs> <clipPath id="SVGID_00000135687286395695765590000002537946444291572619_"> <use xlink:href="#SVGID_00000158709017714717194690000003116995308578313141_" style="overflow:visible;"></use> </clipPath> <path style="clip-path:url(#SVGID_00000135687286395695765590000002537946444291572619_);fill:#5CA1F3;" d="M153.6,28.4h14.5 c3.1,0,4.9,3.5,3.1,6l-29.8,41.2c2,0.3,4,0.6,6.1,0.6c20,0,36.2-16.2,36.2-36.2c0-16.6-11.2-30.6-26.5-34.8 c-2.1-0.6-4.3,0.8-4.7,3l-2.6,15.9C149.5,26.3,151.3,28.4,153.6,28.4"></path> </g> <g> <defs> <rect id="SVGID_00000114769817513064670770000002072181514553225911_" x="71.8" y="4.2" width="808.2" height="221.5"></rect> </defs> <clipPath id="SVGID_00000084531696423371355620000013959970016379821737_"> <use xlink:href="#SVGID_00000114769817513064670770000002072181514553225911_" style="overflow:visible;"></use> </clipPath> <path style="clip-path:url(#SVGID_00000084531696423371355620000013959970016379821737_);fill:#5CA1F3;" d="M88.2,136.2 c1.4,0,2.8-0.2,4.1-0.5L211,103.5c8.7-2.3,14-11.2,11.7-20s-11.2-14-20-11.7L84.1,104c-8.7,2.3-14,11.2-11.7,20 C74.3,131.3,80.9,136.2,88.2,136.2"></path> </g> <g> <defs> <rect id="SVGID_00000022543853732450524380000017961466763666203563_" x="71.8" y="4.2" width="808.2" height="221.5"></rect> </defs> <clipPath id="SVGID_00000143584364068734430460000008604775317983818379_"> <use xlink:href="#SVGID_00000022543853732450524380000017961466763666203563_" style="overflow:visible;"></use> </clipPath> <path style="clip-path:url(#SVGID_00000143584364068734430460000008604775317983818379_);fill:#5CA1F3;" d="M202.8,116.5 L84.1,148.6c-8.7,2.3-14,11.2-11.7,20c1.9,7.4,8.6,12.2,15.8,12.2c1.4,0,2.8-0.2,4.1-0.5L211,148.1c8.7-2.3,14-11.2,11.7-20 C220.4,119.4,211.5,114.2,202.8,116.5"></path> </g> <g> <defs> <rect id="SVGID_00000067229596237923525040000010394524700542410369_" x="71.8" y="4.2" width="808.2" height="221.5"></rect> </defs> <clipPath id="SVGID_00000162319640748349509350000002873985923839274430_"> <use xlink:href="#SVGID_00000067229596237923525040000010394524700542410369_" style="overflow:visible;"></use> </clipPath> <polygon style="clip-path:url(#SVGID_00000162319640748349509350000002873985923839274430_);fill:#5CA1F3;" points=" 136.4,177.4 136.4,185.8 168.6,185.8 168.6,163.9 "></polygon> </g> <g> <defs> <rect id="SVGID_00000136379140632035039140000017256554605242296494_" x="71.8" y="4.2" width="808.2" height="221.5"></rect> </defs> <clipPath id="SVGID_00000134938016099005369140000005541582677556518798_"> <use xlink:href="#SVGID_00000136379140632035039140000017256554605242296494_" style="overflow:visible;"></use> </clipPath> <path style="clip-path:url(#SVGID_00000134938016099005369140000005541582677556518798_);fill:#5CA1F3;" d="M206.7,191.2H88.4 c-9.1,0-16.4,7.4-16.4,16.4c0,9.1,7.4,16.4,16.4,16.4h118.3c9.1,0,16.4-7.4,16.4-16.4C223.1,198.6,215.8,191.2,206.7,191.2"></path> </g> </g> </g> </g> </g> </svg>